<svg id="Capa_1" data-name="Capa 1" xmlns="http://www.w3.org/2000/svg" viewBox="0 0 1160.37 1048.7"><path d="M908.4,15.31a38.57,38.57,0,0,0-38.17,39V245.92a41,41,0,0,0,.4,4.82,38.64,38.64,0,0,0,65.49,30.94l20.49-20.49a233.93,233.93,0,0,1,289.27-33.35,39.32,39.32,0,0,0,3.44,2.13,38.57,38.57,0,0,0,37.14-67.62,310.68,310.68,0,0,0-339.09,6.83V54.28a38.57,38.57,0,0,0-38.17-39Zm-423.46,182c-6.83,6.27-9.17,9.45-15.26,16.87a172.93,172.93,0,0,0-11.25,14.46l-71.52-41.38A38.53,38.53,0,1,0,348.34,254l165.93,95.62a38.57,38.57,0,1,0,38.57-66.69l-26.52-15.27c1-1.47,1.68-3,2.82-4.42,3.19-3.88,8.53-9.17,9.24-10A234.41,234.41,0,0,1,781,208.55a38.61,38.61,0,1,0,28.12-71.91,312.29,312.29,0,0,0-324.22,60.67Zm945.35-10.05-165.53,95.62a38.57,38.57,0,1,0,38.57,66.69l32.55-18.88a233.28,233.28,0,0,1-48.22,261.55L1228.2,651.3a38.64,38.64,0,0,0,54.64,54.64l59.46-59.06A310.76,310.76,0,0,0,1403,292.12L1468.86,254a38.53,38.53,0,1,0-38.57-66.69ZM389.72,366.05A311.57,311.57,0,0,0,475.3,646.88L584.58,756.16l-51.43,51.42a38.64,38.64,0,0,0,54.64,54.64l135.4-135.39a38.64,38.64,0,1,0-54.64-54.64l-29.33,29.33L529.94,592.24a233.55,233.55,0,0,1-64.28-211.33,37.89,37.89,0,0,0,.59-3.82,38.7,38.7,0,0,0-76.53-11Zm703.36,306.23a38.58,38.58,0,0,0,.93,54.55l29.33,29.33L908.8,970.7,739.66,801.56A38.64,38.64,0,1,0,685,856.2l196.46,196.46.09.09a38.57,38.57,0,0,0,54.55-.09L1178,810.8l51.43,51.42a38.64,38.64,0,1,0,54.64-54.64l-135.4-135.39a38.81,38.81,0,0,0-55.57.09Z" transform="translate(-328.43 -15.3)"/></svg>